name D:\PhD\Datasets\SharingData_IBEC_VALDUCE\DC_Healthy_0001.mot
datacolumns 46
datarows 8
range 2.51000000 2.58000000
endheader
                time	         pelvis_tilt	     pelvis_rotation	           pelvis_tx	           pelvis_ty	           pelvis_tz	       hip_flexion_r	     hip_adduction_r	      hip_rotation_r	        knee_angle_r	       ankle_angle_r	    subtalar_angle_r	         mtp_angle_r	       hip_flexion_l	     hip_adduction_l	      hip_rotation_l	        knee_angle_l	       ankle_angle_l	    subtalar_angle_l	         mtp_angle_l	    lumbar_extension	      lumbar_bending	     lumbar_rotation	          arm_flex_r	           arm_add_r	           arm_rot_r	        elbow_flex_r	           pro_sup_r	        wrist_flex_r	         wrist_dev_r	          arm_flex_l	           arm_add_l	           arm_rot_l	        elbow_flex_l	           pro_sup_l	        wrist_flex_l	         wrist_dev_l	          end_eff_tx	          end_eff_ty	          end_eff_tz	             goal_tx	             goal_ty	             goal_tz	            elbow_tx	            elbow_ty	            elbow_tz	
          2.51000000	          0.00000000	          0.00000000	        355.48937312	        493.21444823	        353.42587670	          0.00000000	          0.00000000	          0.00000000	          0.00000000	          0.00000000	          0.00000000	          0.00000000	          0.00000000	          0.00000000	          0.00000000	          0.00000000	          0.00000000	          0.00000000	          0.00000000	         -0.60753506	          0.78440046	         -1.56698191	         32.29564285	        -16.26018715	         25.98347664	         44.95619965	         94.94177246	          0.00000000	          0.00000000	          0.00000000	          0.00000000	          0.00000000	          0.00000000	          0.00000000	          0.00000000	          0.00000000	        790.20550546	        300.48862605	        439.52647593	        760.81779245	        394.21405946	        429.07434332	        419.64931727	        332.72304689	        609.01244424	
          2.52000000	          0.00000000	          0.00000000	        355.68559938	        493.17464731	        353.55040299	          0.00000000	          0.00000000	          0.00000000	          0.00000000	          0.00000000	          0.00000000	          0.00000000	          0.00000000	          0.00000000	          0.00000000	          0.00000000	          0.00000000	          0.00000000	          0.00000000	         -0.57434636	          0.76812989	         -1.60990965	         32.19750977	        -16.33261871	         25.91098976	         45.01567841	         94.89744568	          0.00000000	          0.00000000	          0.00000000	          0.00000000	          0.00000000	          0.00000000	          0.00000000	          0.00000000	          0.00000000	        790.35674395	        300.56455510	        441.10676483	        761.02131529	        394.24980080	        430.58823206	        419.36263976	        332.77510343	        609.71562742	
          2.53000000	          0.00000000	          0.00000000	        355.89731513	        493.17612895	        353.70752001	          0.00000000	          0.00000000	          0.00000000	          0.00000000	          0.00000000	          0.00000000	          0.00000000	          0.00000000	          0.00000000	          0.00000000	          0.00000000	          0.00000000	          0.00000000	          0.00000000	         -0.53401560	          0.77896404	         -1.68498075	         32.12271881	        -16.43049049	         25.88538551	         45.04341125	         94.86344147	          0.00000000	          0.00000000	          0.00000000	          0.00000000	          0.00000000	          0.00000000	          0.00000000	          0.00000000	          0.00000000	        790.48720280	        300.64488024	        442.70839945	        761.18592405	        394.34349105	        432.16112723	        419.12121202	        333.05233071	        610.52764289	
          2.54000000	          0.00000000	          0.00000000	        356.08965731	        493.10768803	        353.83646735	          0.00000000	          0.00000000	          0.00000000	          0.00000000	          0.00000000	          0.00000000	          0.00000000	          0.00000000	          0.00000000	          0.00000000	          0.00000000	          0.00000000	          0.00000000	          0.00000000	         -0.50943148	          0.77539021	         -1.73158252	         32.04350662	        -16.50158119	         25.84601593	         45.08720398	         94.86709595	          0.00000000	          0.00000000	          0.00000000	          0.00000000	          0.00000000	          0.00000000	          0.00000000	          0.00000000	          0.00000000	        790.69103736	        300.66634993	        444.39815962	        761.32742049	        394.18496584	        433.71028122	        418.71590809	        333.06572346	        611.09403881	
          2.55000000	          0.00000000	          0.00000000	        356.30548023	        493.10021416	        354.01136963	          0.00000000	          0.00000000	          0.00000000	          0.00000000	          0.00000000	          0.00000000	          0.00000000	          0.00000000	          0.00000000	          0.00000000	          0.00000000	          0.00000000	          0.00000000	          0.00000000	         -0.48261717	          0.78721005	         -1.78727472	         31.96446228	        -16.58460808	         25.80235291	         45.16072464	         94.78465271	          0.00000000	          0.00000000	          0.00000000	          0.00000000	          0.00000000	          0.00000000	          0.00000000	          0.00000000	          0.00000000	        790.80295399	        300.65327280	        445.94542621	        761.49543997	        394.29310192	        435.23097850	        418.51925859	        332.98048348	        611.95156670	
          2.56000000	          0.00000000	          0.00000000	        356.52449826	        493.05309734	        354.17736824	          0.00000000	          0.00000000	          0.00000000	          0.00000000	          0.00000000	          0.00000000	          0.00000000	          0.00000000	          0.00000000	          0.00000000	          0.00000000	          0.00000000	          0.00000000	          0.00000000	         -0.54619563	          0.79163951	         -1.83123910	         32.03377533	        -16.69844627	         25.60520554	         45.22905731	         94.71045685	          0.00000000	          0.00000000	          0.00000000	          0.00000000	          0.00000000	          0.00000000	          0.00000000	          0.00000000	          0.00000000	        790.95864998	        300.53525368	        447.51483596	        761.81627025	        394.43809678	        436.84792828	        418.00700328	        332.69623281	        612.87296642	
          2.57000000	          0.00000000	          0.00000000	        356.76812369	        493.07220727	        354.38713262	          0.00000000	          0.00000000	          0.00000000	          0.00000000	          0.00000000	          0.00000000	          0.00000000	          0.00000000	          0.00000000	          0.00000000	          0.00000000	          0.00000000	          0.00000000	          0.00000000	         -0.59847641	          0.79492772	         -1.87796116	         32.08484650	        -16.85360909	         25.53520012	         45.32900620	         94.67870331	          0.00000000	          0.00000000	          0.00000000	          0.00000000	          0.00000000	          0.00000000	          0.00000000	          0.00000000	          0.00000000	        791.11631842	        300.58204319	        449.15192123	        761.95048040	        394.40570158	        438.36967086	        417.79833931	        332.62486506	        613.81609265	
          2.58000000	          0.00000000	          0.00000000	        356.93133789	        493.00945317	        354.52265604	          0.00000000	          0.00000000	          0.00000000	          0.00000000	          0.00000000	          0.00000000	          0.00000000	          0.00000000	          0.00000000	          0.00000000	          0.00000000	          0.00000000	          0.00000000	          0.00000000	         -0.62645030	          0.80994213	         -1.91994596	         32.02350235	        -16.95662689	         25.57262611	         45.36324310	         94.61682129	          0.00000000	          0.00000000	          0.00000000	          0.00000000	          0.00000000	          0.00000000	          0.00000000	          0.00000000	          0.00000000	        791.28354080	        300.78330243	        450.79602170	        762.13023206	        394.32411448	        440.06185552	        417.97459953	        332.96130073	        614.72216655	
